<svg width="32" height="32" viewBox="0 0 32 32" fill="none" xmlns="http://www.w3.org/2000/svg">
<g id="fi-rr-angle-small-left">
<path id="Vector" d="M14.1332 16.9467C14.0082 16.8228 13.909 16.6753 13.8413 16.5128C13.7736 16.3503 13.7388 16.1761 13.7388 16C13.7388 15.824 13.7736 15.6497 13.8413 15.4873C13.909 15.3248 14.0082 15.1773 14.1332 15.0534L20.2532 8.94671C20.3782 8.82276 20.4774 8.67529 20.545 8.51281C20.6127 8.35033 20.6476 8.17606 20.6476 8.00004C20.6476 7.82402 20.6127 7.64975 20.545 7.48727C20.4774 7.32479 20.3782 7.17732 20.2532 7.05337C20.0034 6.80504 19.6654 6.66565 19.3132 6.66565C18.9609 6.66565 18.623 6.80504 18.3732 7.05337L12.2532 13.1734C11.5041 13.9234 11.0834 14.94 11.0834 16C11.0834 17.06 11.5041 18.0767 12.2532 18.8267L18.3732 24.9467C18.6215 25.193 18.9567 25.3319 19.3065 25.3334C19.482 25.3344 19.6559 25.3008 19.8184 25.2344C19.9808 25.168 20.1286 25.0703 20.2532 24.9467C20.3782 24.8228 20.4774 24.6753 20.545 24.5128C20.6127 24.3503 20.6476 24.1761 20.6476 24C20.6476 23.824 20.6127 23.6497 20.545 23.4873C20.4774 23.3248 20.3782 23.1773 20.2532 23.0534L14.1332 16.9467Z" fill="#3B3B3B"/>
</g>
</svg>
