<svg width="20" height="20" viewBox="0 0 20 20" fill="none" xmlns="http://www.w3.org/2000/svg">
<g id="fi-rr-angle-small-right">
<path id="Vector" d="M12.8332 8.23334L9.0082 4.40834C8.85206 4.25313 8.64085 4.16602 8.4207 4.16602C8.20054 4.16602 7.98933 4.25313 7.8332 4.40834C7.75509 4.48581 7.6931 4.57798 7.65079 4.67953C7.60848 4.78108 7.5867 4.89 7.5867 5.00001C7.5867 5.11002 7.60848 5.21894 7.65079 5.32049C7.6931 5.42204 7.75509 5.51421 7.8332 5.59168L11.6665 9.40834C11.7446 9.48581 11.8066 9.57798 11.8489 9.67953C11.8912 9.78108 11.913 9.89 11.913 10C11.913 10.11 11.8912 10.2189 11.8489 10.3205C11.8066 10.422 11.7446 10.5142 11.6665 10.5917L7.8332 14.4083C7.67628 14.5642 7.58768 14.7759 7.5869 14.9971C7.58612 15.2182 7.67322 15.4306 7.82903 15.5875C7.98485 15.7444 8.19662 15.833 8.41775 15.8338C8.63889 15.8346 8.85128 15.7475 9.0082 15.5917L12.8332 11.7667C13.3014 11.2979 13.5643 10.6625 13.5643 10C13.5643 9.33751 13.3014 8.7021 12.8332 8.23334Z" fill="#BDBDBD"/>
</g>
</svg>
