<svg width="144" height="162" viewBox="0 0 144 162" fill="none" xmlns="http://www.w3.org/2000/svg">
<circle cx="72" cy="89.5586" r="69.5" fill="white" fill-opacity="0.1" stroke="#243141" stroke-width="5"/>
<circle cx="72.5" cy="90.0586" r="55.5" fill="#4C5764"/>
<path fill-rule="evenodd" clip-rule="evenodd" d="M103.925 73.2076C108.86 67.9842 111.629 60.6245 111.629 51.1628C111.629 30.2458 95.0623 15.9945 74.5111 15.9945C53.9599 15.9945 37.2998 32.9511 37.2998 53.868C37.2998 62.3661 40.5505 68.722 45.7886 73.2737C36.1838 81.7234 30.0793 94.3901 30.0793 108.549C30.0793 133.989 53.374 143.644 77.6832 143.644C101.992 143.644 118 130.698 118 105.259C118 91.8899 112.588 80.7598 103.925 73.2076Z" fill="white"/>
<path fill-rule="evenodd" clip-rule="evenodd" d="M101.27 73.3362L102.586 71.9431C107.136 67.1281 109.788 60.2546 109.788 51.1628C109.788 31.4032 94.1919 17.8358 74.5111 17.8358C55.0073 17.8358 39.1411 33.9372 39.1411 53.868C39.1411 61.8333 42.1609 67.6821 46.9963 71.8839L48.586 73.2652L47.0048 74.6562C37.7925 82.7605 31.9206 94.9257 31.9206 108.549C31.9206 120.594 37.3826 128.799 45.7481 134.079C54.2122 139.422 65.7285 141.803 77.6832 141.803C89.528 141.803 99.1119 138.65 105.717 132.63C112.296 126.635 116.159 117.578 116.159 105.259C116.159 92.4139 110.971 81.7928 102.715 74.5955L101.27 73.3362ZM105.14 71.8243C109.312 66.7133 111.629 59.8174 111.629 51.1628C111.629 30.2458 95.0623 15.9945 74.5111 15.9945C53.9599 15.9945 37.2998 32.9511 37.2998 53.868C37.2998 61.6081 39.9965 67.5711 44.4353 72.0124C44.87 72.4474 45.3214 72.8677 45.7886 73.2737C45.3253 73.6813 44.8701 74.0988 44.4234 74.5257C35.609 82.9489 30.0793 95.0731 30.0793 108.549C30.0793 133.989 53.374 143.644 77.6832 143.644C101.992 143.644 118 130.698 118 105.259C118 92.6042 113.151 81.9556 105.285 74.4486C104.841 74.0249 104.388 73.6111 103.925 73.2076C104.346 72.762 104.751 72.3009 105.14 71.8243Z" fill="#F5F5F5"/>
<path d="M74.7302 0.804045C61.6571 1.54055 52.7116 15.304 51.4841 21.2882L106.722 30.9548C107.413 25.431 107.919 13.4167 104.421 9.55006C100.048 4.71673 91.0714 -0.116591 74.7302 0.804045Z" fill="#D9621F"/>
<path fill-rule="evenodd" clip-rule="evenodd" d="M103.909 10.0133C99.7091 5.37176 90.9575 0.581372 74.769 1.4934C68.4706 1.84824 63.1208 5.34609 59.1682 9.55112C55.512 13.4408 53.1318 17.8503 52.3289 20.735L106.122 30.1488C106.425 27.4107 106.656 23.4491 106.453 19.668C106.342 17.6042 106.103 15.614 105.683 13.9145C105.26 12.2008 104.67 10.8553 103.909 10.0133ZM74.6913 0.114636C91.1853 -0.814604 100.386 4.06165 104.933 9.08679C105.92 10.1781 106.579 11.7844 107.024 13.5835C107.471 15.3968 107.718 17.4804 107.832 19.594C108.059 23.8213 107.756 28.248 107.407 31.0404L107.317 31.7599L50.6649 21.8457L50.8077 21.1494C51.4539 17.9992 54.0766 12.9516 58.162 8.60531C62.2573 4.24845 67.9166 0.496307 74.6913 0.114636Z" fill="#BD5318"/>
<g filter="url(#filter0_f_33_1259)">
<path fill-rule="evenodd" clip-rule="evenodd" d="M73.581 72.92C90.0757 72.92 100.938 64.7844 100.938 48.7972C100.938 47.7458 100.88 46.7165 100.768 45.7108C100.587 44.0909 102.688 42.968 103.25 44.498C104.276 47.2928 104.833 50.3506 104.833 53.6217C104.833 69.609 93.9712 77.7446 77.4765 77.7446C68.1507 77.7446 59.045 75.805 52.8915 71.2297C51.6428 70.3012 52.9721 68.8591 54.4011 69.4752C59.9438 71.8648 66.7026 72.92 73.581 72.92Z" fill="#F5F5F5"/>
</g>
<path fill-rule="evenodd" clip-rule="evenodd" d="M81.8857 38.843C81.9782 38.473 82.3531 38.2481 82.723 38.3406C83.4734 38.5282 85.0844 39.3019 85.9351 41.0033C86.1056 41.3443 85.9673 41.7591 85.6263 41.9296C85.2852 42.1002 84.8704 41.9619 84.6999 41.6208C84.0776 40.3762 82.8652 39.7996 82.3881 39.6803C82.0182 39.5878 81.7932 39.213 81.8857 38.843Z" fill="#606060"/>
<path fill-rule="evenodd" clip-rule="evenodd" d="M58.672 38.3783C58.6964 37.9977 58.4077 37.6694 58.0272 37.645C57.2553 37.5955 55.4853 37.8425 54.1575 39.2045C53.8913 39.4776 53.8968 39.9147 54.1698 40.1809C54.4429 40.4471 54.88 40.4416 55.1462 40.1685C56.1177 39.1721 57.4479 38.9916 57.9387 39.0231C58.3193 39.0476 58.6476 38.7589 58.672 38.3783Z" fill="#606060"/>
<g filter="url(#filter1_i_33_1259)">
<path d="M56.3083 57.4083C56.9883 56.1707 69.0509 52.214 69.9925 56.4556C70.4235 58.3975 69.6574 61.2036 68.126 61.167C66.8696 60.9477 65.2544 60.6356 63.6231 60.2729C63.0169 60.1381 62.4086 59.9964 61.8156 59.8498C58.6407 59.0648 55.9058 58.1408 56.3083 57.4083Z" fill="#EC7D3E"/>
</g>
<g filter="url(#filter2_i_33_1259)">
<path fill-rule="evenodd" clip-rule="evenodd" d="M67.6263 54.1865C68.9691 54.4038 70.1449 55.0179 70.4419 56.3557C70.6768 57.4143 70.5857 58.6885 70.2296 59.7052C70.0511 60.2149 69.796 60.6889 69.4542 61.0402C69.1067 61.3975 68.6546 61.64 68.115 61.6271L68.0807 61.6263L68.0468 61.6204C66.7842 61.3999 65.162 61.0865 63.5231 60.7221C62.914 60.5867 62.3021 60.4441 61.7051 60.2965C60.1129 59.9028 58.6089 59.4692 57.5464 59.0354C57.0219 58.8212 56.5668 58.5921 56.2629 58.3461C56.1122 58.224 55.9623 58.0693 55.8776 57.8759C55.7825 57.659 55.7802 57.4134 55.9049 57.1865C55.9948 57.0228 56.1447 56.8875 56.2848 56.7807C56.435 56.6663 56.621 56.5502 56.831 56.4346C57.2519 56.203 57.803 55.9551 58.4353 55.7112C59.7011 55.223 61.3287 54.7372 62.9661 54.4249C64.5956 54.1142 66.2745 53.9676 67.6263 54.1865ZM56.7733 57.5694C56.7913 57.5872 56.814 57.6077 56.8422 57.6305C57.0371 57.7883 57.3887 57.9766 57.8944 58.1831C58.8546 58.5751 60.2336 58.9794 61.7459 59.358C61.9515 59.2318 62.2103 59.0471 62.4368 58.8323C62.7396 58.545 62.9026 58.2808 62.9226 58.0863C62.9486 57.8334 63.1747 57.6495 63.4276 57.6755C63.6805 57.7015 63.8644 57.9277 63.8384 58.1805C63.783 58.7187 63.4087 59.1792 63.0704 59.5001C63.0198 59.5482 62.9681 59.5949 62.9159 59.64C63.0918 59.6809 63.2682 59.7213 63.4447 59.7611C63.5341 59.6402 63.6353 59.4883 63.7296 59.3183C63.8922 59.0252 64.015 58.7125 64.0438 58.4331C64.0698 58.1802 64.2959 57.9963 64.5488 58.0223C64.8017 58.0483 64.9856 58.2744 64.9596 58.5273C64.9129 58.9805 64.7271 59.418 64.5347 59.7649C64.4946 59.8372 64.4533 59.9071 64.4118 59.9739C65.7794 60.2673 67.1009 60.5201 68.1673 60.7068C68.3826 60.7034 68.5906 60.6077 68.7943 60.3983C69.0134 60.173 69.2101 59.831 69.3607 59.4009C69.6628 58.5384 69.7392 57.4386 69.5431 56.5552C69.3693 55.7722 68.6841 55.2903 67.4792 55.0953C66.2832 54.9017 64.7274 55.0263 63.1385 55.3293C61.5576 55.6307 59.9832 56.101 58.7666 56.5702C58.1577 56.805 57.6475 57.0361 57.2749 57.2412C57.0881 57.344 56.9443 57.4357 56.8427 57.5131C56.8142 57.5348 56.7914 57.5536 56.7733 57.5694Z" fill="#D46A2F"/>
</g>
<g filter="url(#filter3_i_33_1259)">
<path d="M79.0734 45.2079C77.5082 45.1048 75.7933 46.306 75.7426 47.9237C75.6919 49.5415 76.9196 50.9366 78.4849 51.0398C80.0501 51.1429 81.7649 49.9417 81.8157 48.3239C81.8664 46.7061 80.6386 45.311 79.0734 45.2079Z" fill="#606060"/>
</g>
<g filter="url(#filter4_i_33_1259)">
<path d="M58.3591 44.7477C56.7939 44.6446 55.079 45.8458 55.0283 47.4635C54.9776 49.0813 56.2053 50.4764 57.7706 50.5796C59.3358 50.6827 61.0506 49.4815 61.1014 47.8637C61.1521 46.2459 59.9244 44.8508 58.3591 44.7477Z" fill="#606060"/>
</g>
<path d="M108.823 27.7623C88.7905 21.2213 60.702 18.9897 49.1619 18.6915C45.1352 19.517 44.9317 21.6405 45.3006 24.6575C45.6694 27.6745 61.7396 28.1893 70.8138 29.6178C79.888 31.0463 100.873 35.2 105.516 34.8063C110.16 34.4126 109.297 33.1187 109.998 30.9496C110.559 29.2144 109.448 28.1017 108.823 27.7623Z" fill="#F08E57"/>
<path fill-rule="evenodd" clip-rule="evenodd" d="M49.2241 19.384C47.368 19.7774 46.5687 20.4287 46.1998 21.1628C45.7955 21.9675 45.8005 23.0572 45.9859 24.5738C45.9935 24.6361 46.0615 24.8229 46.4946 25.0917C46.9088 25.3487 47.5328 25.601 48.3595 25.8416C50.0058 26.3207 52.2883 26.7073 54.8828 27.0489C57.1157 27.3429 59.5508 27.6001 61.9713 27.8558C62.3562 27.8965 62.7407 27.9371 63.124 27.9779C65.9105 28.2739 68.6329 28.5756 70.9211 28.9358C73.3997 29.326 76.7779 29.9214 80.4641 30.571C83.5236 31.1102 86.7953 31.6868 89.9409 32.2145C93.4188 32.798 96.7506 33.3232 99.4995 33.6779C102.275 34.036 104.383 34.2096 105.458 34.1184C107.785 33.9211 108.418 33.506 108.67 33.1469C108.809 32.9494 108.891 32.6941 108.979 32.271C108.996 32.191 109.012 32.1047 109.031 32.0131C109.102 31.6515 109.189 31.2071 109.341 30.7374C109.748 29.4789 109.003 28.6735 108.542 28.3972C88.6559 21.9192 60.7793 19.6895 49.2241 19.384ZM49.1797 18.0014C60.7412 18.3001 88.9091 20.5338 109.037 27.106L109.097 27.1255L109.152 27.1555C109.949 27.588 111.355 28.9957 110.655 31.1622C110.531 31.5463 110.463 31.8887 110.393 32.2416C110.373 32.3442 110.353 32.4476 110.331 32.5531C110.238 32.995 110.114 33.4945 109.8 33.9408C109.148 34.8693 107.891 35.2981 105.575 35.4944C104.328 35.6002 102.072 35.4021 99.3228 35.0475C96.5476 34.6894 93.1954 34.1608 89.7124 33.5765C86.5364 33.0436 83.2582 32.4658 80.2006 31.9269C76.5323 31.2803 73.1817 30.6897 70.7064 30.3C68.4575 29.9459 65.7683 29.6476 62.978 29.3511C62.5964 29.3105 62.2129 29.27 61.8285 29.2294C59.4095 28.9739 56.9545 28.7145 54.7025 28.418C52.0991 28.0752 49.7277 27.6781 47.9736 27.1675C47.1 26.9133 46.3371 26.6192 45.7664 26.265C45.2147 25.9226 44.6998 25.4334 44.6152 24.7414C44.4317 23.241 44.354 21.7604 44.9659 20.5428C45.6082 19.2645 46.9071 18.449 49.0232 18.0152L49.1006 17.9993L49.1797 18.0014Z" fill="#BD5318"/>
<path fill-rule="evenodd" clip-rule="evenodd" d="M97.9786 15.9363C98.0108 15.5563 98.3448 15.2743 98.7248 15.3064C99.7239 15.3909 101.334 15.6334 102.96 16.0892C104.565 16.5392 106.284 17.2236 107.415 18.2436C107.698 18.4991 107.721 18.9357 107.465 19.2188C107.21 19.502 106.773 19.5245 106.49 19.2691C105.603 18.4695 104.14 17.8542 102.587 17.4188C101.054 16.9891 99.5307 16.7605 98.6085 16.6825C98.2285 16.6504 97.9465 16.3163 97.9786 15.9363Z" fill="#BD5318"/>
<path fill-rule="evenodd" clip-rule="evenodd" d="M100.234 20.3586C100.196 19.9811 100.475 19.6531 100.857 19.626C101.545 19.5772 102.656 19.6257 103.836 19.9158C105.013 20.2054 106.321 20.7512 107.333 21.7442C107.609 22.0152 107.616 22.4491 107.349 22.7133C107.082 22.9776 106.641 22.9722 106.365 22.7013C105.603 21.9534 104.567 21.4989 103.536 21.2452C102.506 20.992 101.543 20.9543 100.996 20.9931C100.614 21.0202 100.273 20.7362 100.234 20.3586Z" fill="#BD5318"/>
<path d="M74.7516 11.5153L76.6154 13.118C76.6393 13.1385 76.672 13.1455 76.7021 13.1364L80.3162 12.044C80.413 12.0148 80.3988 11.8736 80.2982 11.8643L74.8201 11.3539C74.7308 11.3456 74.6835 11.4569 74.7516 11.5153Z" fill="white" fill-opacity="0.3"/>
<path d="M73.7786 13.0477L72.3008 13.3653C72.2191 13.3829 72.2012 13.4914 72.2728 13.5343L73.5934 14.3247C73.6498 14.3585 73.7225 14.3239 73.7318 14.2587L73.8891 13.1507C73.8981 13.0873 73.8413 13.0343 73.7786 13.0477Z" fill="white" fill-opacity="0.3"/>
<path d="M73.7261 12.8033L72.2483 13.1209C71.9447 13.1861 71.8781 13.5894 72.1445 13.7489L73.465 14.5392C73.6748 14.6649 73.9449 14.536 73.9793 14.2938L74.1367 13.1858C74.1701 12.9502 73.9588 12.7533 73.7261 12.8033Z" stroke="white" stroke-opacity="0.5" stroke-width="0.5" stroke-linecap="round"/>
<path fill-rule="evenodd" clip-rule="evenodd" d="M80.2982 11.8644C80.3988 11.8738 80.413 12.015 80.3163 12.0442L76.7021 13.1365C76.672 13.1456 76.6393 13.1387 76.6155 13.1182L74.7516 11.5155C74.6836 11.457 74.7308 11.3457 74.8201 11.354L80.2982 11.8644ZM76.3153 13.4672L74.4515 11.8645C74.0434 11.5136 74.327 10.8458 74.8628 10.8957L80.3409 11.4061C80.9447 11.4623 81.0299 12.3094 80.4494 12.4848L76.8353 13.5771C76.6546 13.6317 76.4585 13.5903 76.3153 13.4672Z" fill="white" fill-opacity="0.5"/>
<path d="M73.3496 15.875L76.2915 14.839C76.3211 14.8285 76.354 14.8339 76.3788 14.8532L78.8946 16.8174C78.9699 16.8762 78.9167 16.9968 78.8225 16.9807L73.3648 16.0526C73.2711 16.0367 73.26 15.9066 73.3496 15.875Z" fill="white" fill-opacity="0.3"/>
<path fill-rule="evenodd" clip-rule="evenodd" d="M73.1967 15.4409L76.1386 14.4048C76.3163 14.3423 76.5136 14.3745 76.6621 14.4904L79.1779 16.4546C79.6301 16.8077 79.3109 17.5308 78.7453 17.4346L73.2876 16.5064C72.7257 16.4109 72.6591 15.6302 73.1967 15.4409ZM78.8225 16.9808C78.9168 16.9968 78.97 16.8763 78.8946 16.8174L76.3788 14.8533C76.354 14.8339 76.3212 14.8286 76.2915 14.839L73.3496 15.875C73.26 15.9066 73.2711 16.0367 73.3648 16.0526L78.8225 16.9808Z" fill="white" fill-opacity="0.5"/>
<path d="M79.4787 15.4845L79.9281 14.158C79.9414 14.1188 79.9792 14.0933 80.0205 14.0956L81.7753 14.1937C81.8676 14.1989 81.8955 14.3216 81.8146 14.3663L80.6212 15.0238C80.5626 15.0561 80.5569 15.1381 80.6105 15.1782L81.2743 15.6751C81.3506 15.7322 81.3005 15.8533 81.2062 15.8399L79.553 15.6051C79.4959 15.597 79.4602 15.5391 79.4787 15.4845Z" fill="white" fill-opacity="0.3"/>
<path fill-rule="evenodd" clip-rule="evenodd" d="M79.4922 14.0102C79.5718 13.7752 79.7984 13.6221 80.0462 13.636L81.801 13.7341C82.3548 13.765 82.5226 14.5017 82.0367 14.7694L81.3431 15.1516L81.5502 15.3065C82.0078 15.6491 81.7074 16.376 81.1415 16.2956L79.4883 16.0608C79.1458 16.0122 78.9318 15.6643 79.0428 15.3367L79.4922 14.0102ZM81.8146 14.3662C81.8956 14.3216 81.8676 14.1988 81.7753 14.1937L80.0205 14.0956C79.9792 14.0933 79.9414 14.1188 79.9282 14.1579L79.4787 15.4844C79.4602 15.539 79.4959 15.597 79.553 15.6051L81.2062 15.8399C81.3005 15.8533 81.3506 15.7321 81.2743 15.675L80.6105 15.1781C80.5569 15.138 80.5626 15.0561 80.6212 15.0238L81.8146 14.3662Z" fill="white" fill-opacity="0.5"/>
<path d="M8.42759 56.6879C0.662758 66.8663 16.9993 74.6632 26.1382 77.2893L32.9729 68.205L31.7754 60.9096C31.6562 59.0659 30.8755 55.1997 28.7063 54.485C26.5371 53.7703 25.5408 56.322 25.3139 57.6872C22.9205 53.1131 16.1924 46.5095 8.42759 56.6879Z" fill="#D9621F"/>
<path fill-rule="evenodd" clip-rule="evenodd" d="M14.2732 52.5432C12.6575 53.2232 10.8703 54.6244 8.97663 57.1067C7.1436 59.5095 6.78192 61.6894 7.30155 63.6551C7.83215 65.6624 9.31145 67.5598 11.3863 69.2905C15.3991 72.6375 21.3884 75.1532 25.8738 76.4923L32.2438 68.0257L31.0886 60.988L31.0864 60.9541C31.03 60.082 30.815 58.7241 30.363 57.5159C29.8945 56.2638 29.2556 55.393 28.4903 55.1408C28.0895 55.0088 27.7881 55.038 27.5485 55.1334C27.2956 55.234 27.054 55.4322 26.8308 55.7249C26.3853 56.309 26.1111 57.1414 26.0027 57.756C25.9777 58.681 26.0992 59.376 26.2495 59.8591C26.4081 60.3689 26.5866 60.6064 26.6297 60.6492C26.9002 60.9179 26.9017 61.3551 26.633 61.6256C26.3643 61.8962 25.9271 61.8977 25.6566 61.629C25.396 61.3703 25.1273 60.9007 24.9308 60.2694C24.7403 59.657 24.6052 58.8538 24.6195 57.8518C23.4411 55.6702 21.3127 53.1623 18.6735 52.3126C17.3481 51.8859 15.8747 51.8692 14.2732 52.5432ZM25.1044 55.9811C23.7585 53.9526 21.6931 51.8341 19.0967 50.9981C17.4703 50.4745 15.6561 50.4629 13.7375 51.2704C11.833 52.072 9.86741 53.6622 7.87869 56.2691C5.82931 58.9555 5.32124 61.5672 5.96645 64.008C6.60069 66.4074 8.3208 68.5318 10.5018 70.351C14.8634 73.9889 21.337 76.628 25.9476 77.9529L26.4043 78.0842L33.7021 68.3843L32.4622 60.8306C32.3961 59.8583 32.1608 58.3804 31.6564 57.032C31.1623 55.7114 30.3263 54.2918 28.9224 53.8292C28.2386 53.6039 27.602 53.6257 27.0377 53.8504C26.4865 54.0698 26.0581 54.4608 25.7328 54.8874C25.4764 55.2235 25.269 55.6012 25.1044 55.9811Z" fill="#BD5318"/>
<path d="M3.68418 50.6573C2.92241 48.6161 3.91886 46.3467 5.91912 45.4833L23.8638 37.7371C25.8609 36.8751 28.1926 37.7025 29.1555 39.653C31.212 43.8188 32.5947 47.0829 34.1524 51.2842C34.8663 53.2098 34.0271 55.3652 32.2005 56.304C25.7523 59.6183 20.876 61.7217 13.7131 64.274C11.7742 64.9648 9.62142 64.1011 8.70888 62.2562C6.68159 58.1575 5.26824 54.9017 3.68418 50.6573Z" fill="white"/>
<path fill-rule="evenodd" clip-rule="evenodd" d="M24.7759 39.8503L6.83129 47.5964C5.93128 47.9849 5.51708 48.9859 5.84049 49.8525C7.3964 54.0215 8.7784 57.2053 10.7719 61.2358C11.1637 62.0278 12.0941 62.4075 12.9406 62.1059C20.012 59.5862 24.7946 57.5228 31.1484 54.257C31.9408 53.8497 32.3026 52.9159 31.9943 52.0843C30.4619 47.9512 29.1101 44.7606 27.0917 40.6718C26.6842 39.8464 25.675 39.4622 24.7759 39.8503ZM5.91912 45.4833C3.91886 46.3467 2.92241 48.6161 3.68418 50.6573C5.26824 54.9017 6.68159 58.1575 8.70888 62.2562C9.62142 64.1011 11.7742 64.9648 13.7131 64.274C20.876 61.7217 25.7523 59.6183 32.2005 56.304C34.0271 55.3652 34.8663 53.2098 34.1524 51.2842C32.5947 47.0829 31.212 43.8188 29.1555 39.653C28.1926 37.7025 25.8609 36.8751 23.8638 37.7371L5.91912 45.4833Z" fill="#D9D9D9"/>
<path d="M25.3139 57.6871C25.2485 59.7249 25.8394 60.8375 26.143 61.139L31.7754 60.9095C31.6562 59.0658 30.8755 55.1997 28.7063 54.485C26.537 53.7703 25.5408 56.3219 25.3139 57.6871Z" fill="#D9621F"/>
<path fill-rule="evenodd" clip-rule="evenodd" d="M26.0026 57.756C26.111 57.1415 26.3852 56.309 26.8307 55.7249C27.054 55.4323 27.2956 55.2341 27.5484 55.1334C27.788 55.038 28.0894 55.0088 28.4902 55.1409C29.2556 55.393 29.8945 56.2638 30.3629 57.5159C30.8149 58.7241 31.03 60.0821 31.0863 60.9542C31.1109 61.3347 31.4394 61.6233 31.8199 61.5987C32.2005 61.5741 32.489 61.2457 32.4644 60.8651C32.4016 59.8935 32.1667 58.3965 31.6563 57.0321C31.1623 55.7115 30.3262 54.2918 28.9224 53.8293C28.2385 53.604 27.6019 53.6257 27.0376 53.8504C26.4865 54.0698 26.0581 54.4609 25.7327 54.8875C25.0919 55.7276 24.7569 56.8272 24.6327 57.574L24.6252 57.6192L24.6238 57.6651C24.5888 58.7546 24.7286 59.6195 24.9308 60.2694C25.1272 60.9007 25.3959 61.3703 25.6565 61.6291C25.9271 61.8978 26.3642 61.8963 26.633 61.6257C26.9017 61.3551 26.9002 60.9179 26.6296 60.6492C26.5865 60.6064 26.408 60.369 26.2494 59.8592C26.0991 59.3761 25.9776 58.681 26.0026 57.756Z" fill="#BD5318"/>
<path fill-rule="evenodd" clip-rule="evenodd" d="M7.6873 50.25C7.68159 49.6145 8.19217 49.0946 8.82771 49.0889L17.8325 49.008L24.0674 42.5104C24.5074 42.0518 25.2359 42.0368 25.6945 42.4769C26.1531 42.9169 26.1681 43.6454 25.7281 44.104L19.2919 50.8114C18.9915 51.1244 18.5777 51.303 18.1439 51.3069L8.84838 51.3904C8.21284 51.3961 7.69301 50.8855 7.6873 50.25Z" fill="#D9D9D9"/>
<path d="M28.0673 71.2732C25.8227 74.873 25.5258 77.258 25.6579 78.0005C26.4998 79.6565 27.7951 78.808 28.3375 78.1767C29.1311 76.6653 29.8566 74.8418 31.2505 72.968C32.5595 71.2085 34.0349 70.1131 35.13 68.8936C35.9943 67.9312 35.2667 66.6787 34.278 66.5022C32.9728 66.2692 30.3119 67.6735 28.0673 71.2732Z" fill="#F08E57"/>
<path fill-rule="evenodd" clip-rule="evenodd" d="M31.9193 68.0169C30.8981 68.7278 29.7335 69.9058 28.6532 71.6384C27.5594 73.3925 26.9517 74.8324 26.6332 75.9047C26.3452 76.8743 26.3051 77.5037 26.3266 77.7866C26.475 78.0483 26.6105 78.1652 26.7009 78.2174C26.7926 78.2704 26.8839 78.2841 26.9948 78.2654C27.2452 78.223 27.5452 78.0178 27.765 77.7811C27.9394 77.4455 28.1156 77.0842 28.3015 76.7032C28.9074 75.4607 29.6158 74.0084 30.6965 72.5557C31.384 71.6315 32.1112 70.8875 32.7908 70.2314C32.9745 70.0541 33.152 69.8855 33.3235 69.7227C33.7998 69.2706 34.2298 68.8624 34.6162 68.4321C34.8578 68.1631 34.8616 67.8998 34.7653 67.6776C34.6546 67.4222 34.4103 67.227 34.1566 67.1817C33.7733 67.1133 32.974 67.2828 31.9193 68.0169ZM31.1304 66.8835C32.2936 66.0738 33.4773 65.6577 34.3993 65.8223C35.1344 65.9535 35.7482 66.4728 36.0323 67.1284C36.3309 67.8171 36.2664 68.6613 35.6437 69.3547C35.2173 69.8296 34.7294 70.2927 34.2403 70.7569C34.0762 70.9126 33.9121 71.0684 33.75 71.2249C33.0909 71.8612 32.4259 72.5447 31.8045 73.38C30.8078 74.7197 30.1806 76.0049 29.586 77.2233C29.3745 77.6567 29.1672 78.0816 28.9488 78.4975L28.9123 78.567L28.8612 78.6265C28.5414 78.9986 27.9494 79.5044 27.2251 79.627C26.8391 79.6923 26.4149 79.647 26.01 79.4131C25.6144 79.1846 25.2944 78.8091 25.0423 78.3133L24.9959 78.2221L24.978 78.1213C24.8847 77.5965 24.9582 76.694 25.3094 75.5116C25.6675 74.3059 26.3306 72.7533 27.4814 70.9077C28.6456 69.0405 29.9337 67.7165 31.1304 66.8835Z" fill="#BD5318"/>
<defs>
<filter id="filter0_f_33_1259" x="48.3945" y="39.7725" width="60.4385" height="41.9722" filterUnits="userSpaceOnUse" color-interpolation-filters="sRGB">
<feFlood flood-opacity="0" result="BackgroundImageFix"/>
<feBlend mode="normal" in="SourceGraphic" in2="BackgroundImageFix" result="shape"/>
<feGaussianBlur stdDeviation="2" result="effect1_foregroundBlur_33_1259"/>
</filter>
<filter id="filter1_i_33_1259" x="54.2689" y="52.5424" width="15.8427" height="8.625" filterUnits="userSpaceOnUse" color-interpolation-filters="sRGB">
<feFlood flood-opacity="0" result="BackgroundImageFix"/>
<feBlend mode="normal" in="SourceGraphic" in2="BackgroundImageFix" result="shape"/>
<feColorMatrix in="SourceAlpha" type="matrix" values="0 0 0 0 0 0 0 0 0 0 0 0 0 0 0 0 0 0 127 0" result="hardAlpha"/>
<feOffset dx="-2" dy="-2"/>
<feGaussianBlur stdDeviation="1.5"/>
<feComposite in2="hardAlpha" operator="arithmetic" k2="-1" k3="1"/>
<feColorMatrix type="matrix" values="0 0 0 0 0.808805 0 0 0 0 0.334841 0 0 0 0 0.0658339 0 0 0 0.5 0"/>
<feBlend mode="normal" in2="shape" result="effect1_innerShadow_33_1259"/>
</filter>
<filter id="filter2_i_33_1259" x="53.8085" y="52.082" width="16.7633" height="9.54553" filterUnits="userSpaceOnUse" color-interpolation-filters="sRGB">
<feFlood flood-opacity="0" result="BackgroundImageFix"/>
<feBlend mode="normal" in="SourceGraphic" in2="BackgroundImageFix" result="shape"/>
<feColorMatrix in="SourceAlpha" type="matrix" values="0 0 0 0 0 0 0 0 0 0 0 0 0 0 0 0 0 0 127 0" result="hardAlpha"/>
<feOffset dx="-2" dy="-2"/>
<feGaussianBlur stdDeviation="1.5"/>
<feComposite in2="hardAlpha" operator="arithmetic" k2="-1" k3="1"/>
<feColorMatrix type="matrix" values="0 0 0 0 0.808805 0 0 0 0 0.334841 0 0 0 0 0.0658339 0 0 0 0.5 0"/>
<feBlend mode="normal" in2="shape" result="effect1_innerShadow_33_1259"/>
</filter>
<filter id="filter3_i_33_1259" x="74.7411" y="44.2018" width="7.0761" height="6.84412" filterUnits="userSpaceOnUse" color-interpolation-filters="sRGB">
<feFlood flood-opacity="0" result="BackgroundImageFix"/>
<feBlend mode="normal" in="SourceGraphic" in2="BackgroundImageFix" result="shape"/>
<feColorMatrix in="SourceAlpha" type="matrix" values="0 0 0 0 0 0 0 0 0 0 0 0 0 0 0 0 0 0 127 0" result="hardAlpha"/>
<feOffset dx="-1" dy="-1"/>
<feGaussianBlur stdDeviation="2"/>
<feComposite in2="hardAlpha" operator="arithmetic" k2="-1" k3="1"/>
<feColorMatrix type="matrix" values="0 0 0 0 0 0 0 0 0 0 0 0 0 0 0 0 0 0 0.25 0"/>
<feBlend mode="normal" in2="shape" result="effect1_innerShadow_33_1259"/>
</filter>
<filter id="filter4_i_33_1259" x="54.0268" y="43.7416" width="7.0761" height="6.84412" filterUnits="userSpaceOnUse" color-interpolation-filters="sRGB">
<feFlood flood-opacity="0" result="BackgroundImageFix"/>
<feBlend mode="normal" in="SourceGraphic" in2="BackgroundImageFix" result="shape"/>
<feColorMatrix in="SourceAlpha" type="matrix" values="0 0 0 0 0 0 0 0 0 0 0 0 0 0 0 0 0 0 127 0" result="hardAlpha"/>
<feOffset dx="-1" dy="-1"/>
<feGaussianBlur stdDeviation="2"/>
<feComposite in2="hardAlpha" operator="arithmetic" k2="-1" k3="1"/>
<feColorMatrix type="matrix" values="0 0 0 0 0 0 0 0 0 0 0 0 0 0 0 0 0 0 0.25 0"/>
<feBlend mode="normal" in2="shape" result="effect1_innerShadow_33_1259"/>
</filter>
</defs>
</svg>
